<svg width="16" height="16" viewBox="0 0 16 16" fill="none" xmlns="http://www.w3.org/2000/svg">
<path d="M16 5.60286C15.9991 4.15446 15.3761 2.85276 14.4373 1.93157C13.6044 1.10807 12.4672 0.65178 11.2857 0.667059C9.68626 0.667059 8.28643 2.06577 8.00016 2.88641C7.71389 2.06577 6.31406 0.667059 4.712 0.667059C3.53082 0.653259 2.39415 1.10933 1.56041 1.93157C0.622518 2.85315 0 4.15557 0 5.6034C0 7.03819 0.611343 8.61578 2.13294 10.1071C3.45924 11.418 7.35409 14.7935 7.51954 14.9354L8.01067 15.3613L8.48078 14.9354C8.64624 14.7935 12.5542 11.4077 13.8674 10.1174C15.3875 8.6224 15.9992 7.04382 16 5.60884V5.60286Z" fill="#DC0069"/>
</svg>
