<svg width="10" height="11" viewBox="0 0 10 11" fill="none" xmlns="http://www.w3.org/2000/svg">
<path d="M5.47019 0.565109C5.32674 0.0930854 4.65884 0.0920103 4.51387 0.563569L3.6753 3.2913C3.61079 3.50116 3.41692 3.64437 3.19738 3.64437H0.625768C0.133317 3.64437 -0.0625474 4.28123 0.344797 4.55796L2.40052 5.95452C2.58109 6.07719 2.6612 6.30283 2.59842 6.51191L1.72574 9.41802C1.58345 9.89185 2.14216 10.2624 2.52334 9.94706L4.67636 8.16576C4.86106 8.01294 5.12823 8.01272 5.31318 8.16523L7.48054 9.95233C7.86192 10.2668 8.41967 9.89617 8.2775 9.42275L7.40337 6.51182C7.3406 6.30279 7.42067 6.07719 7.60118 5.9545L9.65596 4.5579C10.0632 4.28111 9.86728 3.64437 9.37489 3.64437H6.77662C6.55648 3.64437 6.36224 3.50039 6.29823 3.28976L5.47019 0.565109Z" fill="#333333"/>
</svg>
