<svg width="16" height="16" viewBox="0 0 16 16" fill="none" xmlns="http://www.w3.org/2000/svg">
<path fill-rule="evenodd" clip-rule="evenodd" d="M16 5.6031C15.9992 4.1546 15.3765 2.85281 14.4381 1.93157C13.6056 1.10807 12.4689 0.65178 11.288 0.667059C9.98291 0.692102 8.76649 1.3216 8.00673 2.36512C7.24339 1.31759 6.02027 0.687646 4.70968 0.667059C3.52909 0.653259 2.39297 1.10933 1.55964 1.93157C0.622211 2.85315 0 4.15557 0 5.6034C0 7.03819 0.611042 8.61578 2.1319 10.1071C3.45754 11.418 7.35047 14.7935 7.51584 14.9354L8.00673 15.3613L8.48448 14.9354C8.64986 14.7935 12.5559 11.4077 13.8684 10.1174C15.3879 8.62231 15.9992 7.04364 16 5.6086C16 5.60677 16 5.60494 16 5.6031ZM4.72543 2.1277C3.9394 2.11678 3.18218 2.41827 2.6254 2.96383C1.20526 4.34706 0.837752 6.77545 3.18453 9.0748C4.20042 10.0735 6.89371 12.4296 8.00673 13.4025C9.11974 12.4425 11.813 10.0838 12.8289 9.0748C15.1914 6.76512 14.8082 4.33674 13.4012 2.95351C12.8446 2.4077 12.0872 2.10617 11.3011 2.11738C9.54237 2.11738 8.73386 3.93932 8.69973 4.01674L8.00935 5.61416L7.32947 4.01674C7.32673 4.0121 7.32142 4.00165 7.31351 3.98607C7.18495 3.73292 6.36978 2.1277 4.72543 2.1277Z" fill="#666666"/>
</svg>
